PathFileType	4	(X/Y/Z)	C:/Users/beibeiliu/ov580/test_trc/User3\sequence.34_training_dense_right.trc
DataRate	CameraRate	NumFrames	NumMarkers	Units	OrigDataRate	OrigDataStartFrame	OrigNumFrames
120	120	22	19	mm	120	126	250
Frame#	Time	ThumbCMC			ThumbMCP			ThumbIP			ThumbTip			IndexMCP			IndexPIP			IndexTip			MiddleMCP			MiddlePIP			MiddleTip			RingMCP			RingPIP			RingTip			PinkyMCP			PinkyPIP			PinkyTip			BackHand1			BackHand2			BackHand3	
		X0	Y0	Z0	X1	Y1	Z1	X2	Y2	Z2	X3	Y3	Z3	X4	Y4	Z4	X5	Y5	Z5	X6	Y6	Z6	X7	Y7	Z7	X8	Y8	Z8	X9	Y9	Z9	X10	Y10	Z10	X11	Y11	Z11	X12	Y12	Z12	X13	Y13	Z13	X14	Y14	Z14	X15	Y15	Z15	X16	Y16	Z16	X17	Y17	Z17	X18	Y18	Z18	
125	1.04167	139.763	12.4282	24.4118	110.264	31.4299	4.81513	83.9623	29.3483	-8.28646	61.3087	13.6636	-15.3102	128.948	-0.836378	-48.6304	124.345	10.1231	-71.7656	115.154	17.2594	-97.4928	105.315	-22.4956	-49.6071	92.7476	-12.0666	-75.0666	71.6673	-5.24281	-98.41	82.6304	-15.0038	-27.4265	64.2228	5.99595	-10.8864	80.6467	12.7544	13.146	76.3688	-26.3336	-10.0279	62.4678	-5.07006	-3.4252	73.5847	6.53598	21.4188	120.893	-48.8946	4.1339	133.033	-48.9445	34.4388	149.711	-22.2638	10.7209	
126	1.05	139.077	11.241	23.0545	112.501	29.9634	5.95243	84.3951	30.235	-10.3822	64.2297	15.4737	-13.4507	130.848	-0.515844	-49.2853	122.007	6.94811	-75.5438	114.283	11.8606	-97.1097	105.353	-23.0762	-52.5987	91.6255	-14.7746	-73.9908	73.2648	-6.67581	-96.0821	80.0445	-17.162	-27.7923	66.1767	5.43445	-14.9732	81.2344	9.69345	16.0518	74.6895	-28.0315	-10.481	61.1788	-5.45477	-0.132924	75.3033	6.86583	22.2827	123.568	-46.9049	2.69108	133.159	-51.9841	34.7047	151.262	-25.1272	8.77517	
127	1.05833	141.366	10.5434	21.8278	113.2	26.1074	3.93785	86.9827	29.8482	-8.8314	64.5023	15.4939	-15.2769	127.429	-5.08695	-51.158	124.233	7.41881	-76.0961	115.53	12.9188	-99.0877	109.133	-21.4621	-52.2421	91.3183	-14.4522	-74.8114	74.7141	-3.56723	-99.0772	84.9449	-15.8068	-28.8795	66.5563	6.83245	-12.6759	80.6989	9.29256	14.5231	71.8873	-25.7525	-13.5414	64.2791	-2.18739	-0.276271	75.9763	6.11731	24.0872	120.627	-48.5263	2.86296	135.511	-49.2576	36.5563	149.383	-26.9829	13.2122	
128	1.06667	144.965	11.9622	22.9319	117.403	28.2917	5.9126	89.0636	28.7576	-10.5491	63.7394	15.5022	-18.4513	129.858	-5.07641	-52.0712	121.496	1.75148	-72.4755	112.433	8.95162	-95.4075	110.59	-21.6116	-49.7373	96.3608	-11.0049	-75.8574	77.8557	0.557592	-99.9168	85.6846	-14.7297	-30.6462	69.3728	8.17446	-15.2237	85.8261	11.2667	13.766	72.8434	-26.122	-13.3981	65.7832	-3.31217	-5.5374	78.4985	5.49344	17.8654	120.496	-48.437	2.10075	133.782	-53.7848	34.0321	150.619	-27.8974	13.4539	
129	1.075	143.325	8.72035	20.9701	118.259	27.1157	1.7147	91.0842	30.7646	-14.3497	67.1594	17.8532	-19.8602	126.906	-8.58634	-53.9186	121.879	1.34866	-73.9105	109.137	6.83681	-95.3982	112.23	-20.4132	-54.6953	96.978	-11.7392	-75.7261	82.7726	4.15143	-100.709	88.7683	-16.7583	-29.9374	70.8263	5.0492	-19.5141	85.6741	10.1799	13.7283	80.7187	-27.6788	-13.5621	66.6104	-3.03314	-1.39911	80.2589	1.9669	22.7339	123.753	-48.665	3.41962	136.233	-50.4046	36.0574	153.834	-28.1365	11.2504	
130	1.08333	145.867	7.39396	22.7081	118.929	28.6458	-0.891124	91.9955	26.5581	-16.2744	70.0093	14.1827	-19.4774	128.435	-9.39706	-51.1861	120.339	1.15465	-73.2734	104.372	3.73853	-93.0981	109.207	-22.2867	-54.0318	97.7009	-9.13785	-75.9126	84.2832	3.67704	-96.9825	87.7437	-17.3401	-29.1171	73.0513	7.12984	-16.8185	87.8103	11.5951	14.3746	80.7749	-24.4841	-14.7737	67.8293	-4.71371	-4.16389	83.6515	4.09016	22.836	126.235	-48.598	2.42192	132.544	-53.6781	35.9597	152.071	-29.1868	11.1985	
131	1.09167	145.124	5.96742	20.3398	121.54	27.3457	3.70304	91.305	28.025	-16.078	70.7447	15.1209	-19.8455	131.493	-8.27952	-49.6017	119.259	-1.62092	-71.9413	105.412	7.02344	-92.5003	112.361	-22.7829	-49.3631	97.5774	-8.52091	-75.4126	80.4004	2.97428	-97.3435	89.6374	-19.5612	-27.3248	73.5514	6.01025	-16.9078	87.9051	8.94769	15.2224	80.2415	-27.5177	-14.3654	71.128	-2.90693	-1.95387	83.0528	2.26381	23.1362	126.707	-48.9222	5.08229	134.828	-55.2057	31.2828	152.528	-31.041	9.14746	
132	1.1	148.144	9.76863	24.1413	120.942	28.4511	2.97154	91.3423	26.7645	-17.091	71.8478	10.8848	-18.468	127.507	-11.5657	-47.7674	116.067	-3.63983	-70.895	103.84	6.95453	-96.4739	115.498	-21.3856	-50.8317	97.8321	-10.3461	-74.6302	82.6429	1.25028	-94.4223	89.1888	-18.8444	-27.9556	73.8101	4.57847	-18.5789	89.0051	10.7765	13.1506	81.0964	-30.7687	-12.6649	71.9883	-2.81916	-2.16852	86.0108	0.815958	19.7472	126.471	-52.6886	5.22164	134.033	-55.8818	36.3542	156.286	-31.204	13.4534	
133	1.10833	147.536	10.2722	23.833	117.83	23.6918	0.99354	93.0582	23.2874	-13.1375	71.355	9.36236	-18.4114	132.096	-7.39009	-52.1356	120.669	0.832728	-74.1589	105.713	4.91879	-96.8187	110.997	-23.449	-52.0793	102.26	-10.5789	-71.9786	83.1508	-0.997305	-96.0751	89.0287	-21.3483	-28.1269	71.1691	1.20266	-17.4417	83.3702	6.45801	13.6371	77.6269	-29.6605	-13.9495	68.9962	-4.35014	-0.448357	83.9073	1.20962	18.402	125.969	-50.1203	3.7455	137.946	-53.1691	30.5742	155.641	-28.3005	11.3288	
134	1.11667	145.521	6.30077	24.377	119.527	24.3261	4.19458	90.8495	26.7939	-16.7735	69.7373	9.26372	-21.8547	134.377	-9.64513	-50.6593	130.233	2.25313	-73.7088	118.146	9.20244	-99.2599	116.126	-23.5496	-53.2947	101.63	-14.9146	-75.3883	82.2574	-4.0721	-101.643	91.788	-20.1567	-31.0675	73.1257	1.74961	-20.8773	89.3853	9.02813	12.0128	82.5198	-31.6923	-14.5648	72.2586	-4.06096	-4.24453	83.849	2.32346	18.6111	129.806	-50.8183	5.07924	137.311	-53.2611	36.2497	154.418	-32.0535	13.9136	
135	1.125	146.142	8.14559	22.0593	119.592	28.0268	2.42321	91.3603	27.0185	-17.1047	72.1215	9.32109	-20.6355	139.965	-6.30808	-48.995	132.605	-0.235294	-73.996	126.058	6.37598	-98.0091	113.917	-26.0655	-54.1691	102.409	-18.208	-75.875	88.0681	-8.96067	-99.3469	89.8309	-18.5909	-32.4602	73.5647	3.55742	-18.7524	84.8577	6.97946	9.53692	82.2947	-30.0355	-14.7061	69.5866	-4.63454	-3.55583	82.0228	2.19934	20.7564	126.258	-50.1369	2.24531	138.732	-54.8993	34.7564	153.125	-29.5182	10.0457	
136	1.13333	146.757	8.35995	25.3565	119.848	23.5527	3.33553	94.0442	23.8423	-13.8462	73.3569	9.31159	-20.7007	138.37	-9.81969	-48.0894	139.787	2.70191	-72.4122	131.736	7.94457	-99.6795	114.709	-26.5326	-52.5657	106.185	-18.065	-74.2001	88.7606	-10.7132	-99.3489	90.4389	-22.67	-30.3661	73.2577	0.621612	-21.0936	86.5674	7.18504	11.0278	82.1018	-30.0796	-16.0128	69.8017	-5.48114	-3.94708	84.1645	3.52061	18.9483	126.872	-51.5282	1.86177	134.791	-55.7315	36.1308	154.044	-31.6132	10.5804	
137	1.14167	147.123	9.30403	25.653	120.189	25.0461	2.67911	93.9953	26.4429	-17.3022	74.7587	11.3861	-18.6693	140.701	-7.30523	-51.1332	140.475	3.63944	-72.7397	138.18	10.0562	-96.8659	115.677	-25.4954	-51.9777	105.21	-16.474	-78.9421	90.9028	-8.07881	-101.247	89.4407	-20.1855	-32.4182	74.207	5.38945	-19.3166	90.1173	8.68673	10.4237	81.4438	-26.3732	-16.6017	70.1998	-4.63036	-5.79778	82.3606	0.872586	22.8001	125.431	-53.5456	4.65491	139.318	-54.2074	32.349	155.746	-28.55	10.3975	
138	1.15	147.515	9.37125	25.0311	121.815	27.5599	3.89894	94.4697	28.3341	-15.7283	71.2211	13.9114	-21.7584	139.929	-7.11794	-50.9368	140.643	4.62656	-74.9765	136.223	9.47266	-96.6919	116.371	-24.5788	-53.5765	104.041	-14.9165	-78.1967	89.6135	-9.93016	-98.3811	92.7115	-20.5863	-30.2002	72.6237	3.57606	-18.7956	89.6567	9.7837	9.64383	81.8518	-26.6308	-16.7772	71.1643	-3.60754	-6.68554	82.4198	3.85431	21.6933	128.158	-50.8905	1.51962	136.045	-56.2685	32.4305	154.895	-29.4738	14.1883	
139	1.15833	146.047	6.25275	26.1807	121.377	23.6449	3.37533	94.709	28.0632	-15.1108	75.1046	13.3272	-18.7806	142.065	-4.30007	-50.5285	138.037	6.11376	-75.5195	133.395	11.8086	-95.3107	117.778	-23.2861	-53.0795	104.156	-14.1425	-77.7071	89.6555	-7.48309	-99.5754	94.7514	-18.1445	-30.694	74.3127	3.422	-21.9171	89.4471	8.08348	11.0814	79.7356	-27.0826	-16.0602	70.8361	-4.52506	-8.81859	82.72	4.34741	20.3325	127.776	-49.4395	2.09315	136.926	-56.029	33.2342	154.374	-31.0506	13.4186	
140	1.16667	145.965	6.21038	22.8094	122.054	29.0552	2.79143	96.3011	28.9959	-12.9342	74.5603	13.2381	-20.8487	139.031	-5.39666	-48.7108	129.584	3.55576	-76.6195	125.065	13.8909	-98.0953	118.94	-22.4115	-51.173	106.519	-11.7275	-77.7611	90.6362	-5.65875	-100.824	90.0505	-19.7049	-32.0492	75.4786	6.2008	-21.9656	88.6637	6.67611	11.9726	82.8366	-29.5542	-15.5381	70.9286	-4.82353	-10.0872	85.8099	4.18874	20.2646	124.101	-51.5349	5.95806	134.657	-54.1655	31.704	156.426	-28.5665	11.9563	
141	1.175	148.58	8.92788	24.5616	120.831	25.4344	0.560084	95.0136	28.567	-18.3307	74.9839	12.3843	-20.2852	135.906	-4.8222	-53.8668	123.662	1.46967	-74.4089	112.592	11.0771	-95.1929	116.126	-23.355	-52.1122	108.095	-9.69176	-77.3208	93.3927	-1.34842	-100.918	92.996	-14.8113	-33.74	75.3852	6.1809	-19.4817	88.8445	10.1824	8.16595	80.1611	-29.7567	-16.3865	71.6593	-2.29252	-6.9129	82.7121	0.800432	18.8957	127.164	-49.5127	0.934989	133.985	-57.1741	33.4665	152.558	-32.4578	11.4692	
142	1.18333	147.872	7.69086	18.7794	123.574	28.1522	-1.05164	95.9593	26.5376	-20.0857	76.1448	12.5765	-21.4559	132.533	-9.37857	-52.8195	122.688	1.3642	-73.9404	110.905	9.20624	-94.611	116.922	-22.9787	-55.6391	105.923	-12.9605	-75.9313	90.9338	1.80838	-104.429	90.9918	-15.6657	-34.9569	78.5226	6.66802	-24.6263	93.6262	7.03378	10.3987	81.3101	-27.2968	-18.9806	73.401	-2.66682	-11.082	83.605	0.722228	20.2984	126.825	-50.3663	4.61532	131.657	-58.4348	29.641	156.347	-32.4847	9.45403	
143	1.19167	147.506	3.7657	18.3506	125.878	26.1574	-0.70903	97.0071	26.418	-21.4909	75.5084	9.65893	-25.8713	134.72	-10.8052	-51.0804	121.334	0.338671	-76.8054	106.499	5.95333	-94.4824	118.244	-24.7916	-53.9942	106.192	-13.4034	-76.8501	91.9799	3.59	-103.364	95.5715	-20.0454	-33.6063	77.9736	6.36142	-19.3915	93.6474	7.50441	7.94696	82.6802	-29.5712	-18.7761	72.9901	-4.10084	-10.2282	89.7369	1.918	16.1913	127.31	-52.364	-0.977144	133.987	-55.5927	34.9771	153.442	-32.8417	10.3535	
144	1.2	149.71	2.98042	23.7494	126.086	25.315	-1.69075	100.199	23.1855	-20.2878	77.5711	11.8645	-26.5398	134.297	-12.7104	-54.0529	119.474	-4.41305	-75.9261	111.012	6.10196	-94.1306	121.224	-24.2433	-52.7817	105.935	-11.9811	-77.663	91.8656	3.69681	-99.4462	94.717	-19.1696	-35.2792	79.7222	2.7037	-24.5201	95.0804	4.76769	9.22062	81.7351	-29.5965	-20.1385	76.6208	-1.53105	-8.78523	89.0316	-0.424248	14.0902	125.331	-52.2287	0.344182	134.921	-56.9785	35.7455	155.44	-36.4806	9.70196	
145	1.20833	149.134	2.66786	22.8772	126.608	21.3257	-3.21343	101.673	23.906	-21.6754	79.9854	9.63349	-28.6102	133.042	-15.277	-52.2826	123.224	-6.40566	-73.7144	109.975	5.09458	-94.1697	120.553	-26.3568	-52.4819	106.856	-12.0211	-75.6416	87.9362	5.94148	-94.9438	97.2113	-20.7955	-35.5414	81.3215	4.69105	-23.2425	95.0136	3.3146	8.21686	85.6356	-30.5505	-20.3854	76.5798	-4.96171	-11.714	87.7054	-4.45209	17.6835	124.78	-55.8546	5.06182	133.739	-57.5272	34.9429	154.204	-37.9359	12.7771	
146	1.21667	149.347	2.10335	19.9162	129.637	19.7239	-0.905521	104.417	19.6793	-24.0657	83.998	8.78685	-28.2438	136.623	-14.6024	-54.2822	126.317	-6.04349	-72.581	105.863	3.21872	-93.452	119.712	-24.748	-51.8406	103.793	-9.46729	-74.1683	82.4434	12.7529	-91.3898	97.892	-23.34	-33.3908	82.3731	2.48023	-22.7118	95.3575	3.27008	6.94607	83.8326	-29.5114	-22.232	78.2822	-4.75106	-10.3071	94.8279	-5.67737	14.82	129.673	-55.1307	1.14305	132.554	-57.2801	34.017	155.305	-35.7263	15.4144	
